<?xml version="1.0" standalone="no"?>
<!DOCTYPE svg PUBLIC "-//W3C//DTD SVG 20010904//EN"
 "http://www.w3.org/TR/2001/REC-SVG-20010904/DTD/svg10.dtd">
<svg version="1.0" xmlns="http://www.w3.org/2000/svg"
 width="150.000000pt" height="150.000000pt" viewBox="0 0 150.000000 150.000000"
 preserveAspectRatio="xMidYMid meet">
<metadata>
Created by potrace 1.14, written by Peter Selinger 2001-2017
</metadata>
<g transform="translate(0.000000,150.000000) scale(0.100000,-0.100000)"
fill="#000000" stroke="none">
<path d="M705 1322 c-96 -11 -153 -53 -174 -129 -13 -44 -14 -96 -4 -107 4 -4
7 -40 5 -79 -2 -76 10 -71 23 8 6 33 9 37 18 24 9 -12 18 -14 35 -8 13 5 35 6
48 3 17 -4 24 -2 24 9 0 11 -10 14 -47 10 -36 -3 -44 -2 -33 6 12 9 11 11 -7
11 -32 0 -29 15 13 78 5 7 190 13 222 7 23 -4 32 -11 32 -25 0 -11 3 -20 8
-20 4 0 8 -20 8 -45 1 -25 -1 -45 -4 -45 -2 0 -15 11 -28 25 -23 25 -68 34
-79 15 -4 -6 5 -10 19 -10 14 0 35 -9 46 -20 28 -28 25 -30 -17 -10 -35 17
-131 35 -119 23 2 -3 0 -17 -5 -32 l-9 -26 20 23 20 24 11 -29 c10 -22 13 -24
16 -10 3 11 14 17 34 17 18 0 28 -4 24 -10 -3 -5 1 -10 9 -10 9 0 16 -7 16
-15 0 -9 9 -15 22 -15 20 0 18 -4 -15 -34 -38 -35 -49 -60 -21 -49 14 5 14 2
-1 -27 -13 -25 -19 -30 -26 -19 -7 11 -9 11 -9 1 0 -30 -53 -62 -101 -62 -26
0 -42 10 -77 46 -35 37 -43 42 -37 23 10 -35 89 -108 125 -115 16 -4 30 -11
30 -16 0 -5 15 0 34 11 19 12 40 20 47 19 7 -2 15 11 19 28 4 17 24 65 44 107
21 41 39 83 40 92 1 9 7 20 12 23 11 8 32 63 46 117 14 58 3 100 -35 129 -18
15 -39 32 -47 40 -45 40 -104 56 -175 48z"/>
<path d="M646 1081 c17 -4 36 -11 42 -15 7 -4 12 -3 12 2 0 11 -35 22 -65 21
-12 -1 -8 -4 11 -8z"/>
<path d="M607 932 c-3 -4 6 -18 19 -32 17 -17 24 -20 24 -10 0 17 -37 53 -43
42z"/>
<path d="M705 929 c-16 -6 -12 -8 17 -8 20 -1 39 2 41 7 7 10 -34 11 -58 1z"/>
<path d="M684 879 c-4 -7 0 -9 14 -5 11 4 23 3 26 -3 7 -10 43 -3 52 10 3 5
-15 9 -40 9 -25 0 -48 -5 -52 -11z"/>
<path d="M557 743 c-10 -9 -8 -51 2 -57 8 -6 21 25 21 52 0 13 -13 16 -23 5z"/>
<path d="M756 652 c-7 -12 23 -54 34 -47 4 3 11 -1 14 -7 3 -7 3 0 0 17 -7 37
-35 58 -48 37z"/>
<path d="M570 605 c-17 -20 -8 -27 19 -17 19 7 21 10 8 20 -11 10 -17 9 -27
-3z"/>
<path d="M625 580 c3 -5 11 -10 16 -10 6 0 7 5 4 10 -3 6 -11 10 -16 10 -6 0
-7 -4 -4 -10z"/>
<path d="M1180 349 c0 -5 5 -7 10 -4 6 3 10 8 10 11 0 2 -4 4 -10 4 -5 0 -10
-5 -10 -11z"/>
<path d="M1194 275 c20 -16 24 -24 15 -27 -8 -3 -11 -9 -7 -13 12 -13 28 6 28
33 0 23 -4 27 -32 28 l-32 1 28 -22z"/>
<path d="M970 237 c1 -28 15 -35 26 -13 9 18 7 22 -8 23 -10 1 -18 -4 -18 -10z"/>
<path d="M187 223 c-4 -3 -7 -11 -7 -17 0 -6 5 -5 12 2 6 6 9 14 7 17 -3 3 -9
2 -12 -2z"/>
<path d="M1175 180 c3 -5 13 -10 21 -10 8 0 14 5 14 10 0 6 -9 10 -21 10 -11
0 -17 -4 -14 -10z"/>
<path d="M973 151 c-3 -11 -15 -21 -27 -23 -16 -3 -13 -5 11 -9 30 -5 32 -4
30 23 -2 33 -7 36 -14 9z"/>
<path d="M830 130 c0 -5 9 -10 19 -10 11 0 23 5 26 10 4 6 -5 10 -19 10 -14 0
-26 -4 -26 -10z"/>
<path d="M1140 126 c0 -2 7 -6 15 -10 8 -3 15 -1 15 4 0 6 -7 10 -15 10 -8 0
-15 -2 -15 -4z"/>
<path d="M224 43 c-13 -22 -7 -43 12 -43 8 0 11 6 8 15 -4 8 -1 22 6 30 10 12
10 15 -1 15 -8 0 -19 -8 -25 -17z"/>
<path d="M1085 44 c17 -9 35 -23 42 -31 7 -9 23 -13 40 -11 27 4 27 5 -17 25
-25 11 -56 24 -70 27 -22 6 -21 5 5 -10z"/>
<path d="M770 15 l-35 -13 35 -1 c19 0 46 6 60 14 l25 14 -25 0 c-14 0 -41 -7
-60 -14z"/>
</g>
</svg>
